HIERARCHY
ROOT hip
{
  OFFSET -9.51422 85.3739 7.8081
  CHANNELS 6 Xposition Yposition Zposition Zrotation Xrotation Yrotation
  JOINT abdomen
  {
    OFFSET 0 20.6881 -0.73152
    CHANNELS 3 Zrotation Xrotation Yrotation
    JOINT chest
    {
      OFFSET 0 11.7043 -0.48768
      CHANNELS 3 Zrotation Xrotation Yrotation
      JOINT neck
      {
        OFFSET 0 22.1894 -2.19456
        CHANNELS 3 Zrotation Xrotation Yrotation
        JOINT head
        {
          OFFSET -0.24384 7.07133 1.2192
          CHANNELS 3 Zrotation Xrotation Yrotation
          JOINT leftEye
          {
            OFFSET 4.14528 8.04674 8.04672
            CHANNELS 3 Zrotation Xrotation Yrotation
            End Site
            {
              OFFSET 1 0 0
            }
          }
          JOINT rightEye
          {
            OFFSET -3.6576 8.04674 8.04672
            CHANNELS 3 Zrotation Xrotation Yrotation
            End Site
            {
              OFFSET 1 0 0
            }
          }
        }
      }
      JOINT rCollar
      {
        OFFSET -2.68224 19.2634 -4.8768
        CHANNELS 3 Zrotation Xrotation Yrotation
        JOINT rShldr
        {
          OFFSET -8.77824 -1.95073 1.46304
          CHANNELS 3 Zrotation Xrotation Yrotation
          JOINT rForeArm
          {
            OFFSET -28.1742 -1.7115 0.48768
            CHANNELS 3 Zrotation Xrotation Yrotation
            JOINT rHand
            {
              OFFSET -22.5879 0.773209 7.07136
              CHANNELS 3 Zrotation Xrotation Yrotation
              JOINT rThumb1
              {
                OFFSET -1.2192 -0.487915 3.41376
                CHANNELS 3 Zrotation Xrotation Yrotation
                JOINT rThumb2
                {
                  OFFSET -3.37035 -0.52449 3.41376
                  CHANNELS 3 Zrotation Xrotation Yrotation
                  End Site
                  {
                    OFFSET -1.78271 -1.18214 1.43049
                  }
                }
              }
              JOINT rIndex1
              {
                OFFSET -7.75947 0.938293 5.60832
                CHANNELS 3 Zrotation Xrotation Yrotation
                JOINT rIndex2
                {
                  OFFSET -2.54057 -0.884171 1.56538
                  CHANNELS 3 Zrotation Xrotation Yrotation
                  End Site
                  {
                    OFFSET -1.62519 -0.234802 1.16502
                  }
                }
              }
              JOINT rMid1
              {
                OFFSET -8.24714 1.18213 3.41376
                CHANNELS 3 Zrotation Xrotation Yrotation
                JOINT rMid2
                {
                  OFFSET -3.10165 -0.590103 1.0647
                  CHANNELS 3 Zrotation Xrotation Yrotation
                  End Site
                  {
                    OFFSET -2.48547 -0.328903 0.83742
                  }
                }
              }
              JOINT rRing1
              {
                OFFSET -8.82822 0.546677 1.51678
                CHANNELS 3 Zrotation Xrotation Yrotation
                JOINT rRing2
                {
                  OFFSET -2.60934 -0.819778 -0.0198488
                  CHANNELS 3 Zrotation Xrotation Yrotation
                  End Site
                  {
                    OFFSET -2.33842 -0.294052 0.168128
                  }
                }
              }
              JOINT rPinky1
              {
                OFFSET -8.27202 -0.0477905 -0.4584
                CHANNELS 3 Zrotation Xrotation Yrotation
                JOINT rPinky2
                {
                  OFFSET -1.82734 -0.647385 -0.700984
                  CHANNELS 3 Zrotation Xrotation Yrotation
                  End Site
                  {
                    OFFSET -1.69225 -0.51767 -0.607171
                  }
                }
              }
            }
          }
        }
      }
      JOINT lCollar
      {
        OFFSET 2.68224 19.2634 -4.8768
        CHANNELS 3 Zrotation Xrotation Yrotation
        JOINT lShldr
        {
          OFFSET 8.77824 -1.95073 1.46304
          CHANNELS 3 Zrotation Xrotation Yrotation
          JOINT lForeArm
          {
            OFFSET 28.1742 -1.7115 0.48768
            CHANNELS 3 Zrotation Xrotation Yrotation
            JOINT lHand
            {
              OFFSET 22.5879 0.773209 7.07136
              CHANNELS 3 Zrotation Xrotation Yrotation
              JOINT lThumb1
              {
                OFFSET 1.2192 -0.487915 3.41376
                CHANNELS 3 Zrotation Xrotation Yrotation
                JOINT lThumb2
                {
                  OFFSET 3.37035 -0.52449 3.41376
                  CHANNELS 3 Zrotation Xrotation Yrotation
                  End Site
                  {
                    OFFSET 1.78271 -1.18214 1.43049
                  }
                }
              }
              JOINT lIndex1
              {
                OFFSET 7.75947 0.938293 5.60832
                CHANNELS 3 Zrotation Xrotation Yrotation
                JOINT lIndex2
                {
                  OFFSET 2.54057 -0.884171 1.56538
                  CHANNELS 3 Zrotation Xrotation Yrotation
                  End Site
                  {
                    OFFSET 1.62519 -0.234802 1.16502
                  }
                }
              }
              JOINT lMid1
              {
                OFFSET 8.24714 1.18213 3.41376
                CHANNELS 3 Zrotation Xrotation Yrotation
                JOINT lMid2
                {
                  OFFSET 3.10165 -0.590103 1.0647
                  CHANNELS 3 Zrotation Xrotation Yrotation
                  End Site
                  {
                    OFFSET 2.48547 -0.328903 0.83742
                  }
                }
              }
              JOINT lRing1
              {
                OFFSET 8.82822 0.546677 1.51678
                CHANNELS 3 Zrotation Xrotation Yrotation
                JOINT lRing2
                {
                  OFFSET 2.60934 -0.819778 -0.0198488
                  CHANNELS 3 Zrotation Xrotation Yrotation
                  End Site
                  {
                    OFFSET 2.33842 -0.294052 0.168128
                  }
                }
              }
              JOINT lPinky1
              {
                OFFSET 8.27202 -0.0477905 -0.4584
                CHANNELS 3 Zrotation Xrotation Yrotation
                JOINT lPinky2
                {
                  OFFSET 1.82734 -0.647385 -0.700984
                  CHANNELS 3 Zrotation Xrotation Yrotation
                  End Site
                  {
                    OFFSET 1.69225 -0.51767 -0.607171
                  }
                }
              }
            }
          }
        }
      }
    }
  }
  JOINT rButtock
  {
    OFFSET -8.77824 4.35084 1.2192
    CHANNELS 3 Zrotation Xrotation Yrotation
    JOINT rThigh
    {
      OFFSET 0 -1.70687 -2.19456
      CHANNELS 3 Zrotation Xrotation Yrotation
      JOINT rShin
      {
        OFFSET 0 -36.8199 0.73152
        CHANNELS 3 Zrotation Xrotation Yrotation
        JOINT rFoot
        {
          OFFSET 0.73152 -45.1104 -5.12064
          CHANNELS 3 Zrotation Xrotation Yrotation
          End Site
          {
            OFFSET -1.1221 -3.69964 12.103
          }
        }
      }
    }
  }
  JOINT lButtock
  {
    OFFSET 8.77824 4.35084 1.2192
    CHANNELS 3 Zrotation Xrotation Yrotation
    JOINT lThigh
    {
      OFFSET 0 -1.70687 -2.19456
      CHANNELS 3 Zrotation Xrotation Yrotation
      JOINT lShin
      {
        OFFSET 0 -36.8199 0.73152
        CHANNELS 3 Zrotation Xrotation Yrotation
        JOINT lFoot
        {
          OFFSET -0.73152 -45.1104 -5.12064
          CHANNELS 3 Zrotation Xrotation Yrotation
          End Site
          {
            OFFSET 1.1221 -3.69964 12.103
          }
        }
      }
    }
  }
}
MOTION
Frames:	9
Frame Time:	0.00833333
21.1259 81.3671 44.8719 3.01177 -6.50017 63.1614 0.974169 12.7748 4.64542 -1.66603 0.18397 1.58486 -3.22651 16.4297 1.53061 -1.81957 13.4578 5.73265 -0 0 0 -0 0 0 4.61228e-014 -4.23803e-013 -4.57801e-013 35.7406 4.72543 34.4751 -28.2785 -38.5457 81.3531 -0.17918 11.9752 1.70821 -1.72265e-009 -8.431e-010 3.50679e-009 -2.94801e-009 -1.46303e-009 6.07908e-009 -1.72265e-009 -8.43099e-010 3.50678e-009 7.73091 5.47488 0.417314 -1.72265e-009 -8.43099e-010 3.50679e-009 2.90554 0.965183 0.102902 -1.72264e-009 -8.431e-010 3.50679e-009 10.2786 0.731801 0.0259123 -1.72265e-009 -8.43096e-010 3.5068e-009 2.22167 -0.733487 -0.20892 4.60667e-014 -4.23814e-013 -4.58199e-013 -61.5132 3.60142 -11.0148 17.2353 -9.88744 -32.3264 0.309649 -15.6381 2.25463 1.20931e-009 -4.61616e-009 -3.39889e-009 2.13437e-009 -8.00944e-009 -5.87586e-009 1.2093e-009 -4.61615e-009 -3.39888e-009 -7.73091 5.47488 -0.417314 1.20932e-009 -4.61616e-009 -3.39889e-009 -2.90554 0.965183 -0.102902 1.2093e-009 -4.61616e-009 -3.39889e-009 -10.2786 0.731801 -0.0259123 1.20932e-009 -4.61616e-009 -3.3989e-009 -2.22167 -0.733487 0.20892 -2.03217e-016 0 -3.88251e-019 4.975 -22.5679 18.8045 -0.241071 39.3071 0.749656 -3.90308 -10.5418 -16.1101 2.03217e-016 0 3.88251e-019 14.5178 -31.179 -3.98952 0.928487 59.8259 -1.99082 19.0041 40.5663 -31.505 
21.1199 81.4946 44.9115 2.83886 -6.10567 63.8792 0.844216 13.0694 5.02095 -1.58615 0.038362 1.67092 -3.28755 16.5137 1.27643 -1.08725 13.3944 5.19422 -0 0 0 -0 0 0 1.55248e-014 -2.05147e-013 -3.44685e-013 37.8995 6.49607 34.346 -28.4143 -37.2789 79.0563 -0.186752 12.2 1.7414 -1.53913e-009 -7.43275e-010 3.04328e-009 -2.63457e-009 -1.28822e-009 5.277e-009 -1.53913e-009 -7.43275e-010 3.04327e-009 7.73091 5.47488 0.417314 -1.53913e-009 -7.43275e-010 3.04329e-009 2.90554 0.965183 0.102902 -1.53912e-009 -7.43275e-010 3.04328e-009 10.2786 0.731801 0.0259123 -1.53914e-009 -7.43271e-010 3.04329e-009 2.22167 -0.733487 -0.20892 1.5496e-014 -2.05156e-013 -3.45041e-013 -62.2218 6.15177 -11.5442 17.4516 -10.109 -32.8011 0.289504 -15.1315 2.17797 1.26018e-009 -3.55538e-009 -2.71732e-009 2.21249e-009 -6.1671e-009 -4.69509e-009 1.26017e-009 -3.55537e-009 -2.7173e-009 -7.73091 5.47488 -0.417314 1.26018e-009 -3.55537e-009 -2.71731e-009 -2.90554 0.965183 -0.102902 1.26017e-009 -3.55537e-009 -2.71732e-009 -10.2786 0.731801 -0.0259123 1.26018e-009 -3.55537e-009 -2.71732e-009 -2.22167 -0.733487 0.20892 -2.03217e-016 0 -3.88251e-019 4.74816 -22.6202 18.698 -0.234543 39.0926 0.770133 -4.13475 -10.6384 -16.7599 2.03217e-016 0 3.88251e-019 14.6546 -32.6703 -3.48367 0.968842 60.2251 -1.96315 16.3373 37.1303 -29.7159 
21.1024 81.6681 44.9695 2.73383 -5.56992 64.4909 0.437646 13.3723 5.41649 -1.55392 -0.174337 1.7522 -3.32999 16.6133 1.06486 -0.381646 13.2868 4.73427 -0 0 0 -0 0 0 -1.75831e-014 7.94028e-014 -2.04813e-013 40.287 8.16623 34.1886 -28.4587 -35.8005 76.6389 -0.189503 12.278 1.75295 -1.27521e-009 -7.12133e-010 2.49669e-009 -2.18321e-009 -1.2325e-009 4.33036e-009 -1.27521e-009 -7.12133e-010 2.49668e-009 7.73091 5.47488 0.417314 -1.27521e-009 -7.12134e-010 2.49669e-009 2.90554 0.965183 0.102902 -1.2752e-009 -7.12134e-010 2.49669e-009 10.2786 0.731801 0.0259123 -1.27522e-009 -7.12129e-010 2.49669e-009 2.22167 -0.733487 -0.20892 -1.75718e-014 7.93973e-014 -2.05074e-013 -62.7328 8.71818 -11.9265 17.6716 -10.3373 -33.2894 0.267783 -14.5367 2.08869 1.23346e-009 -2.51668e-009 -1.97762e-009 2.1561e-009 -4.36403e-009 -3.41487e-009 1.23345e-009 -2.51667e-009 -1.9776e-009 -7.73091 5.47488 -0.417314 1.23346e-009 -2.51668e-009 -1.97761e-009 -2.90554 0.965183 -0.102902 1.23345e-009 -2.51668e-009 -1.97762e-009 -10.2786 0.731801 -0.0259123 1.23347e-009 -2.51668e-009 -1.97762e-009 -2.22167 -0.733487 0.20892 -2.03217e-016 0 -3.88251e-019 4.3703 -22.6373 18.7042 -0.227854 38.7948 0.784354 -4.36841 -10.6745 -17.4236 2.03217e-016 0 3.88251e-019 14.6311 -33.9723 -2.8377 1.00389 60.4133 -1.89745 13.1632 32.6092 -27.5995 
21.0655 81.8793 45.0282 2.63878 -4.97052 65.0677 -0.0705115 13.6642 5.78202 -1.54046 -0.394322 1.82163 -3.36462 16.6954 0.881107 0.25075 13.1402 4.33 -0 0 0 -0 0 0 -4.41659e-014 3.25638e-013 -7.37922e-014 42.7704 9.67352 34.0112 -28.4057 -34.2309 74.146 -0.192086 12.367 1.76602 -9.68874e-010 -6.81291e-010 1.9042e-009 -1.65914e-009 -1.17799e-009 3.3036e-009 -9.68871e-010 -6.81291e-010 1.90418e-009 7.73091 5.47488 0.417314 -9.68873e-010 -6.81293e-010 1.90419e-009 2.90554 0.965183 0.102902 -9.68865e-010 -6.81292e-010 1.90419e-009 10.2786 0.731801 0.0259123 -9.68879e-010 -6.81287e-010 1.90419e-009 2.22167 -0.733487 -0.20892 -4.41222e-014 3.25636e-013 -7.39522e-014 -63.1417 11.233 -12.2324 17.9004 -10.5791 -33.7999 0.241616 -13.8117 1.98031 1.10618e-009 -1.56523e-009 -1.258e-009 1.92654e-009 -2.71297e-009 -2.17016e-009 1.10617e-009 -1.56522e-009 -1.25798e-009 -7.73091 5.47488 -0.417314 1.10618e-009 -1.56523e-009 -1.258e-009 -2.90554 0.965183 -0.102902 1.10617e-009 -1.56523e-009 -1.258e-009 -10.2786 0.731801 -0.0259123 1.10619e-009 -1.56523e-009 -1.25801e-009 -2.22167 -0.733487 0.20892 -2.03217e-016 0 -3.88251e-019 3.91818 -22.6338 18.768 -0.220668 38.4384 0.79503 -4.60215 -10.6754 -18.108 2.03217e-016 0 3.88251e-019 14.515 -35.1398 -2.18352 1.02493 60.3735 -1.80928 10.1445 27.8359 -25.5329 
21.0238 82.0628 45.0426 2.49713 -4.38011 65.6757 -0.503677 13.9262 6.06712 -1.51735 -0.561799 1.87212 -3.40259 16.7269 0.710463 0.763594 12.9596 3.95854 -0 0 0 -0 0 0 -5.51884e-014 4.2935e-013 1.27719e-014 45.2147 10.9533 33.8185 -28.2798 -32.6862 71.5617 -0.199567 12.6249 1.8039 -6.58104e-010 -5.82366e-010 1.30299e-009 -1.1276e-009 -1.00682e-009 2.26113e-009 -6.58101e-010 -5.82367e-010 1.30297e-009 7.73091 5.47488 0.417314 -6.58103e-010 -5.82369e-010 1.30298e-009 2.90554 0.965183 0.102902 -6.58095e-010 -5.82368e-010 1.30298e-009 10.2786 0.731801 0.0259123 -6.58109e-010 -5.82362e-010 1.30298e-009 2.22167 -0.733487 -0.20892 -5.51408e-014 4.29351e-013 1.26725e-014 -63.533 13.6264 -12.5302 18.1426 -10.8409 -34.3409 0.209017 -12.9142 1.84666 8.5538e-010 -7.66154e-010 -6.36674e-010 1.48517e-009 -1.32665e-009 -1.09589e-009 8.55365e-010 -7.66153e-010 -6.36661e-010 -7.73091 5.47488 -0.417314 8.55377e-010 -7.6616e-010 -6.36674e-010 -2.90554 0.965183 -0.102902 8.55371e-010 -7.66161e-010 -6.36676e-010 -10.2786 0.731801 -0.0259123 8.55387e-010 -7.66159e-010 -6.36687e-010 -2.22167 -0.733487 0.20892 -2.03217e-016 0 -3.88251e-019 3.46836 -22.6241 18.8348 -0.212628 38.0478 0.804856 -4.8352 -10.6658 -18.8198 2.03217e-016 0 3.88251e-019 14.3631 -36.2303 -1.66011 1.02467 60.0893 -1.71548 7.71166 23.698 -23.6192 
20.9981 82.227 45.003 2.29987 -3.78904 66.3256 -0.851217 14.1459 6.24755 -1.46958 -0.650739 1.89775 -3.45024 16.6796 0.55739 1.12093 12.7593 3.63246 -0 0 0 -0 0 0 -4.30315e-014 3.13507e-013 4.25011e-014 47.6473 11.9585 33.603 -28.0862 -31.0624 68.762 -0.213836 13.0432 1.86596 -2.95197e-010 -3.42987e-010 5.80652e-010 -5.07433e-010 -5.94949e-010 1.00778e-009 -2.95196e-010 -3.42988e-010 5.80638e-010 7.73091 5.47488 0.417314 -2.95197e-010 -3.42988e-010 5.8065e-010 2.90554 0.965183 0.102902 -2.9519e-010 -3.42987e-010 5.80646e-010 10.2786 0.731801 0.0259123 -2.95201e-010 -3.42983e-010 5.80648e-010 2.22167 -0.733487 -0.20892 -4.30288e-014 3.1351e-013 4.24048e-014 -63.9272 15.8816 -12.823 18.4 -11.1242 -34.9213 0.167356 -11.7066 1.66808 3.22815e-010 -1.07473e-010 -8.27065e-011 5.58419e-010 -1.84562e-010 -1.38902e-010 3.228e-010 -1.07473e-010 -8.26933e-011 -7.73091 5.47488 -0.417314 3.22811e-010 -1.0748e-010 -8.27068e-011 -2.90554 0.965183 -0.102902 3.22807e-010 -1.07481e-010 -8.271e-011 -10.2786 0.731801 -0.0259123 3.22822e-010 -1.0748e-010 -8.27216e-011 -2.22167 -0.733487 0.20892 -2.03217e-016 0 -3.88251e-019 3.0149 -22.6122 18.9186 -0.203527 37.6234 0.814029 -5.06678 -10.631 -19.5821 2.03217e-016 0 3.88251e-019 14.1402 -37.2549 -1.27564 1.00415 59.5443 -1.61941 5.789 20.3401 -21.5622 
20.9942 82.4067 44.9362 2.0728 -3.17552 66.9891 -1.19286 14.3365 6.35323 -1.41514 -0.696405 1.90363 -3.50131 16.5777 0.427162 1.35523 12.5328 3.35778 -0 0 0 -0 0 0 -1.42506e-014 5.01018e-014 3.53464e-014 50.1182 12.731 33.3483 -27.7647 -29.2337 65.8097 -0.232949 13.5543 1.94236 1.20827e-010 -1.76689e-011 -2.41868e-010 2.03297e-010 -3.61055e-011 -4.20033e-010 1.20826e-010 -1.76713e-011 -2.41877e-010 7.73091 5.47488 0.417314 1.20826e-010 -1.76684e-011 -2.41867e-010 2.90554 0.965183 0.102902 1.20833e-010 -1.76683e-011 -2.4187e-010 10.2786 0.731801 0.0259123 1.20826e-010 -1.7665e-011 -2.41866e-010 2.22167 -0.733487 -0.20892 -1.43257e-014 5.0105e-014 3.52222e-014 -64.2928 18.0383 -13.0746 18.6679 -11.4238 -35.535 0.125064 -10.2534 1.45573 -4.28559e-010 4.35774e-010 4.28352e-010 -7.45331e-010 7.56571e-010 7.43047e-010 -4.28573e-010 4.35773e-010 4.28366e-010 -7.73091 5.47488 -0.417314 -4.28562e-010 4.35766e-010 4.28352e-010 -2.90554 0.965183 -0.102902 -4.28566e-010 4.35765e-010 4.28348e-010 -10.2786 0.731801 -0.0259123 -4.28551e-010 4.35766e-010 4.28335e-010 -2.22167 -0.733487 0.20892 -2.03217e-016 0 -3.88251e-019 2.52566 -22.5903 19.0391 -0.193628 37.1541 0.821332 -5.2957 -10.565 -20.3838 2.03217e-016 0 3.88251e-019 13.8181 -38.1855 -0.973168 0.970995 58.7511 -1.51677 4.18416 17.2995 -19.2951 
21.0063 82.6053 44.9173 1.81362 -2.58747 67.6659 -1.48723 14.5172 6.41482 -1.3752 -0.730945 1.8992 -3.54785 16.4668 0.306259 1.52212 12.253 3.10199 -0 0 0 -0 0 0 1.89282e-014 -2.41539e-013 4.19467e-015 52.5254 13.3389 33.0474 -27.2997 -27.315 62.8708 -0.257513 14.2284 2.04307 4.81898e-010 2.71637e-010 -9.27345e-010 8.20549e-010 4.60909e-010 -1.61046e-009 4.81896e-010 2.71634e-010 -9.2735e-010 7.73091 5.47488 0.417314 4.81898e-010 2.7164e-010 -9.27343e-010 2.90554 0.965183 0.102902 4.81903e-010 2.7164e-010 -9.27344e-010 10.2786 0.731801 0.0259123 4.819e-010 2.71641e-010 -9.27339e-010 2.22167 -0.733487 -0.20892 1.87762e-014 -2.41535e-013 4.03005e-015 -64.6258 20.1085 -13.2942 18.9414 -11.7358 -36.1687 0.0924411 -8.81531 1.2482 -1.08992e-009 8.17882e-010 8.08554e-010 -1.89189e-009 1.41813e-009 1.39868e-009 -1.08994e-009 8.1788e-010 8.0857e-010 -7.73091 5.47488 -0.417314 -1.08993e-009 8.17873e-010 8.08555e-010 -2.90554 0.965183 -0.102902 -1.08993e-009 8.17872e-010 8.08549e-010 -10.2786 0.731801 -0.0259123 -1.08992e-009 8.17873e-010 8.08535e-010 -2.22167 -0.733487 0.20892 -2.03217e-016 0 -3.88251e-019 2.03799 -22.5551 19.1496 -0.183234 36.6475 0.827305 -5.52293 -10.5049 -21.1811 2.03217e-016 0 3.88251e-019 13.4538 -39.0229 -0.800158 0.927591 57.7371 -1.41283 2.96227 14.6245 -17.1048 
21.0153 82.8366 44.9201 1.5222 -2.0674 68.3517 -1.69354 14.707 6.46316 -1.37084 -0.786504 1.89392 -3.5816 16.3924 0.18106 1.67617 11.893 2.8328 -0 0 0 -0 0 0 4.42785e-014 -4.42087e-013 -3.80673e-014 54.7673 13.851 32.6965 -26.7295 -25.4733 60.0396 -0.289469 15.1354 2.17857 6.79949e-010 4.02983e-010 -1.23856e-009 1.16028e-009 6.87296e-010 -2.15166e-009 6.79946e-010 4.0298e-010 -1.23856e-009 7.73091 5.47488 0.417314 6.79948e-010 4.02986e-010 -1.23855e-009 2.90554 0.965183 0.102902 6.79952e-010 4.02986e-010 -1.23855e-009 10.2786 0.731801 0.0259123 6.79951e-010 4.02986e-010 -1.23855e-009 2.22167 -0.733487 -0.20892 4.40841e-014 -4.42084e-013 -3.8266e-014 -64.92 22.1034 -13.4917 19.216 -12.0566 -36.8091 0.0723856 -7.65353 1.08214 -1.35246e-009 9.93144e-010 9.69951e-010 -2.34706e-009 1.72148e-009 1.67672e-009 -1.35247e-009 9.93142e-010 9.69967e-010 -7.73091 5.47488 -0.417314 -1.35246e-009 9.93136e-010 9.69951e-010 -2.90554 0.965183 -0.102902 -1.35246e-009 9.93135e-010 9.69946e-010 -10.2786 0.731801 -0.0259123 -1.35245e-009 9.93136e-010 9.69932e-010 -2.22167 -0.733487 0.20892 -2.03217e-016 0 -3.88251e-019 1.58929 -22.5034 19.2037 -0.172637 36.1111 0.832476 -5.75153 -10.4874 -21.9305 2.03217e-016 0 3.88251e-019 13.1022 -39.7677 -0.80566 0.875459 56.5295 -1.31204 2.11682 12.3997 -15.267 
